<svg xmlns="http://www.w3.org/2000/svg" x="0px" y="0px" width="100" height="100" viewBox="0 0 50 50">
<polygon fill="#e68f3a" points="43,14.6 43,33.08 23,44.63 23,44.62 7,35.39 7,16.91 27,5.36"></polygon><polygon fill="#ff9f40" points="23,26.149 23,44.624 7,35.389 7,16.904"></polygon><polygon fill="#ccc" points="17,22.691 17,27.318 13,25.008 13,20.381"></polygon><polygon fill="#a8a8a8" points="17,22.691 37,11.144 33,8.834 13,20.381"></polygon><polygon fill="#b3702d" points="43,33.083 23,44.63 23,26.149 43,14.602"></polygon><polygon fill="#d98836" points="12,24.423 12,26.732 18,30.196 18,27.887"></polygon><polygon fill="#b3702d" points="12,24.423 12,26.732 14,25.577"></polygon>
</svg>